<?xml version="1.0" standalone="no"?>
<!DOCTYPE svg PUBLIC "-//W3C//DTD SVG 20010904//EN"
 "http://www.w3.org/TR/2001/REC-SVG-20010904/DTD/svg10.dtd">
<svg version="1.0" xmlns="http://www.w3.org/2000/svg"
 width="121.000000pt" height="91.000000pt" viewBox="0 0 121.000000 91.000000"
 preserveAspectRatio="xMidYMid meet">

<g transform="translate(0.000000,91.000000) scale(0.100000,-0.100000)"
fill="#000000" stroke="none">
<path d="M274 855 c-3 -8 -4 -39 -2 -70 l3 -55 -52 0 c-50 0 -53 -2 -53 -25 0
-23 3 -25 50 -25 l50 0 0 -144 c0 -206 7 -258 40 -298 26 -30 32 -33 84 -32
59 0 80 11 71 36 -5 11 -17 14 -53 10 -39 -3 -50 0 -67 18 -18 20 -20 39 -23
216 l-3 194 89 0 89 0 8 -244 c9 -301 7 -307 -95 -318 -14 -2 -26 -10 -28 -20
-5 -25 43 -34 92 -17 72 25 76 43 76 342 l0 257 65 0 64 0 -24 -24 c-48 -49
-69 -105 -69 -191 -1 -71 2 -86 30 -135 36 -64 109 -115 182 -126 59 -9 137
10 180 42 29 22 32 29 20 40 -11 12 -21 10 -63 -12 -93 -47 -207 -20 -268 64
-25 35 -32 55 -35 107 -7 103 29 169 112 210 66 33 128 33 191 -1 42 -22 50
-23 63 -11 12 13 9 18 -20 40 -55 42 -96 47 -385 47 l-273 0 0 70 c0 64 -2 70
-20 70 -11 0 -23 -7 -26 -15z"/>
</g>
</svg>
